<?xml version="1.0" standalone="no"?>
<!DOCTYPE svg PUBLIC "-//W3C//DTD SVG 20010904//EN"
 "http://www.w3.org/TR/2001/REC-SVG-20010904/DTD/svg10.dtd">
<svg version="1.0" xmlns="http://www.w3.org/2000/svg"
 width="50.000000pt" height="50.000000pt" viewBox="0 0 50.000000 50.000000"
 preserveAspectRatio="xMidYMid meet">

<g transform="translate(0.000000,50.000000) scale(0.100000,-0.100000)"
fill="#000000" stroke="none">
<path d="M0 250 l0 -250 250 0 250 0 0 250 0 250 -250 0 -250 0 0 -250z m150
175 c0 -20 5 -25 25 -25 20 0 25 -5 25 -25 0 -23 3 -25 50 -25 47 0 50 2 50
25 0 20 5 25 25 25 20 0 25 5 25 25 0 23 3 25 50 25 47 0 50 -2 50 -25 0 -23
-3 -25 -50 -25 l-50 0 0 -75 0 -75 50 0 50 0 0 -75 c0 -73 -1 -75 -25 -75 -20
0 -25 -5 -25 -25 0 -20 -5 -25 -25 -25 -20 0 -25 5 -25 25 0 20 5 25 25 25 20
0 25 5 25 25 0 23 -3 25 -50 25 -47 0 -50 -2 -50 -25 0 -23 -3 -25 -50 -25
-47 0 -50 2 -50 25 0 23 -3 25 -50 25 -47 0 -50 -2 -50 -25 0 -20 5 -25 25
-25 20 0 25 -5 25 -25 0 -20 -5 -25 -25 -25 -20 0 -25 5 -25 25 0 20 -5 25
-25 25 -24 0 -25 2 -25 75 l0 75 50 0 50 0 0 75 0 75 -50 0 c-47 0 -50 2 -50
25 0 23 3 25 50 25 47 0 50 -2 50 -25z"/>
<path d="M150 225 c0 -20 5 -25 25 -25 20 0 25 5 25 25 0 20 -5 25 -25 25 -20
0 -25 -5 -25 -25z"/>
<path d="M300 225 c0 -20 5 -25 25 -25 20 0 25 5 25 25 0 20 -5 25 -25 25 -20
0 -25 -5 -25 -25z"/>
</g>
</svg>
